<?xml version="1.0" encoding="utf-8"?>
<!-- Generator: Adobe Illustrator 17.0.0, SVG Export Plug-In . SVG Version: 6.00 Build 0)  -->
<!DOCTYPE svg PUBLIC "-//W3C//DTD SVG 1.1//EN" "http://www.w3.org/Graphics/SVG/1.1/DTD/svg11.dtd">
<svg version="1.1" id="Capa_1" xmlns="http://www.w3.org/2000/svg" xmlns:xlink="http://www.w3.org/1999/xlink" x="0px" y="0px"
	 width="480px" height="480px" viewBox="0 0 480 480" enable-background="new 0 0 480 480" xml:space="preserve">
<rect fill="#ED1E79" width="480" height="480"/>
<polygon fill="#B21C5D" points="480,480 0,480 480,0 "/>
<g>
	<path fill="#FFFFFF" d="M240.074,45.551c6.15-0.549,12.311-0.794,18.457-0.733c-17.734-6.26-37.96-8.102-56.071-7.845
		c42.016-13.767,81.372-6.31,100.453,13.756c10.583,2.777,20.928,6.535,30.894,11.278c27.304,12.995,50.975,33.068,67.292,58.614
		c-28.901-25.778-50.64-41.142-86.993-48.806c2.295,11.347,0.028,24.488-8.154,38.778c0.069-17.729-4.697-31.392-12.591-41.854
		c-69.676-6.213-144.465,23.143-181.901,87.463c-19.342,33.233-20.978,59.916-18.989,96.683
		c-12.253-33.888-11.307-71.537,2.428-104.922c11.533-28.034,31.273-51.984,55.842-69.61
		C176.992,59.52,207.935,48.421,240.074,45.551z"/>
	<path fill="#FFFFFF" d="M31.723,250.034H45.32v4.643h-8.442v4.539h8.442v4.579h-8.442v11.254h-5.155V250.034L31.723,250.034z
		 M49.77,250.034h5.231v16.187c0,1.398,0.134,2.385,0.401,2.959c0.267,0.58,0.705,1.039,1.322,1.388
		c0.617,0.348,1.361,0.517,2.225,0.517c0.922,0,1.71-0.193,2.378-0.575c0.661-0.389,1.124-0.877,1.379-1.475
		c0.254-0.593,0.381-1.73,0.381-3.407v-15.594h5.231v14.916c0,2.513-0.159,4.26-0.465,5.235c-0.311,0.976-0.902,1.915-1.779,2.82
		c-0.877,0.912-1.887,1.579-3.026,2.02c-1.143,0.436-2.472,0.652-3.985,0.652c-1.99,0-3.718-0.414-5.187-1.249
		c-1.474-0.831-2.524-1.875-3.159-3.128c-0.63-1.254-0.947-3.372-0.947-6.35V250.034L49.77,250.034z M74.39,250.034h4.989
		l11.754,16.46v-16.46h5.212v25.015h-5.008l-11.735-16.408v16.408H74.39V250.034L74.39,250.034z M102.602,250.034h6.184
		c3.986,0,6.949,0.452,8.88,1.352c1.939,0.905,3.535,2.367,4.787,4.399c1.252,2.026,1.881,4.394,1.881,7.105
		c0,1.926-0.349,3.697-1.049,5.317c-0.705,1.612-1.672,2.955-2.906,4.022c-1.239,1.062-2.574,1.798-4.017,2.211
		c-1.436,0.406-3.935,0.609-7.488,0.609h-6.273V250.034L102.602,250.034z M107.801,254.625v15.762h2.416
		c2.383,0,4.112-0.248,5.188-0.748c1.074-0.498,1.951-1.335,2.638-2.512c0.681-1.178,1.023-2.63,1.023-4.353
		c0-2.652-0.813-4.713-2.441-6.175c-1.462-1.312-3.814-1.974-7.056-1.974H107.801L107.801,254.625z M137.634,250.034h5.289
		l10.539,25.015h-5.422l-2.142-5.154h-11.169l-2.238,5.154h-5.416L137.634,250.034L137.634,250.034z M140.317,256.669l-3.656,8.582
		h7.285L140.317,256.669z"/>
	<path fill-rule="evenodd" clip-rule="evenodd" fill="#FFFFFF" d="M338.754,346.846c-0.028-3.347-0.078-6.693-0.154-10.038
		c-0.104-4.501-0.181-9.006-0.181-13.508c0-2.819,0.085-5.649,0.181-8.466c0.121-3.518,0.321-7.033,0.605-10.54
		c0.259-3.23,0.623-6.464,1.164-9.661c0.378-2.244,1.041-5.287,2.652-6.987l1.688-1.776l2.015,1.396
		c1.868,1.296,3.568,2.872,5.115,4.536c1.752,1.884,3.333,3.923,4.758,6.065c1.471,2.213,2.8,4.517,3.99,6.893
		c1.182,2.362,2.193,4.82,2.982,7.357c0.472,1.577,0.932,3.166,1.384,4.751c0.64,2.248,1.346,4.496,2.069,6.746
		c0.655,2.169,1.352,4.339,2.107,6.473c0.665,1.877,1.361,3.743,2.103,5.589c0.515,1.281,1.051,2.556,1.606,3.822
		c0.263-0.697,0.477-1.411,0.641-2.136c0.218-0.956,0.366-1.944,0.49-2.925c0.281-2.135,0.475-4.294,0.64-6.44
		c0.206-2.663,0.403-5.326,0.595-7.988c0.196-2.722,0.415-5.442,0.66-8.158c0.215-2.403,0.484-4.812,0.858-7.196l0.008-0.057
		l0.011-0.056c0.281-1.412,0.599-2.848,1.032-4.223c0.687-2.187,2.455-3.518,4.755-3.518c1.877,0,3.626,0.564,5.045,1.808
		c1.335,1.169,2.226,2.695,2.226,4.503c0,1.123-0.148,2.381-0.251,3.503c-0.189,2.067-0.392,4.132-0.597,6.198
		c-0.257,2.548-0.539,5.092-0.841,7.634c-0.292,2.462-0.572,4.926-0.831,7.39c-0.201,1.916-0.401,3.829-0.595,5.743
		c-0.077,0.763-0.18,1.57-0.224,2.336c-0.001,1.547-0.076,3.137-0.339,4.661c-0.22,1.275-0.5,2.539-0.825,3.79
		c-0.362,1.385-0.682,2.781-0.988,4.178c-0.433,1.989-0.721,4.054-0.972,6.083c-0.264,2.051-0.579,4.162-1.07,6.172
		c-0.357,1.462-0.871,3.01-1.718,4.266c-0.853,1.269-2.032,2.213-3.515,2.625c-1.181,0.326-2.464,0.417-3.683,0.417
		c-2.122,0-3.773-1.211-4.869-2.965c-0.932-1.488-1.575-3.183-2.054-4.864c-0.555-1.943-0.94-3.939-1.215-5.939
		c-0.271-1.96-0.531-3.927-0.781-5.897c-0.229-1.893-0.655-3.763-1.209-5.585c-0.589-1.936-1.252-3.851-2.004-5.731
		c-0.657-1.635-1.403-3.243-2.274-4.774c-0.676-1.187-1.399-2.389-2.206-3.489l-0.555-0.755v-0.937c0-1.459-0.438-3.384-0.762-4.804
		c-0.536-2.357-1.263-4.667-2.144-6.922c-0.893-2.304-1.933-4.754-3.229-6.862c-0.135-0.221-0.274-0.439-0.415-0.653
		c-0.163,0.886-0.247,1.79-0.247,2.713c0,1.939,0.151,3.908,0.344,5.837c0.24,2.418,0.515,4.831,0.825,7.241
		c0.302,2.352,0.585,4.706,0.841,7.063c0.191,1.764,0.376,3.608,0.376,5.383c0,1.935,0,3.87,0,5.806
		c0,1.826,0.014,3.651,0.057,5.477c0.035,1.521,0.062,3.044,0.062,4.564c0,0.889,0,1.779,0,2.668c0,1.871-0.336,3.749-1.271,5.39
		c-0.979,1.719-2.508,3.014-4.57,3.014c-2.385,0-4.114-1.74-5.321-3.606c-1.328-2.05-1.95-4.351-1.95-6.785c0-0.032,0-0.063,0-0.096
		c-0.86,1.173-2.213,1.994-3.676,2.523c-2.307,0.836-4.78,1.336-7.207,1.662c-2.731,0.369-5.483,0.583-8.236,0.652
		c-2.249,0.06-4.501,0.106-6.751,0.106c-1.569,0-3.137-0.043-4.706-0.108c-1.753-0.071-3.505-0.249-5.231-0.567
		c-1.639-0.304-3.268-0.807-4.718-1.64c-1.811-1.037-2.988-2.71-2.988-4.834c0-2.752,1.917-4.495,4.483-5.088
		c2.083-0.481,4.351-0.597,6.485-0.597c0.434,0,0.869,0,1.305,0c-0.062-7.605-0.147-15.227-0.409-22.825
		c-0.116-3.369-0.153-7.647-0.733-10.956l-0.011-0.062c-0.182-1.19-0.305-2.387-0.384-3.588c-0.086-1.282-0.126-2.567-0.126-3.854
		c0-1.475,0.063-2.951,0.172-4.425c-1.658-0.646-3.36-1.482-4.543-2.561c-1.393-1.272-2.422-2.89-2.422-4.833
		c0-1.244,0.625-2.309,1.595-3.053c1.038-0.796,2.381-0.958,3.649-0.958c1.746,0,3.482,0.306,5.156,0.795
		c1.908,0.56,4.076,0.862,6.048,1.109l0.058,0.009c1.833,0.267,3.671,0.491,5.515,0.662c1.842,0.172,3.755,0.539,5.448,1.314
		c2.176,0.871,3.642,2.624,3.642,5.038c0,1.553-0.723,2.945-2.123,3.681c-1.086,0.573-2.511,0.643-3.718,0.643
		c-1.144,0-2.296-0.096-3.43-0.228c-0.24-0.029-0.481-0.056-0.722-0.086c0.179,2.605,0.312,5.213,0.396,7.822
		c0.122,3.761,0.179,7.524,0.179,11.285c0,2.115-0.034,4.23-0.12,6.343c-0.083,1.971-0.183,3.941-0.3,5.91
		c-0.124,2.052-0.22,4.105-0.296,6.158c-0.089,2.405-0.117,4.813-0.117,7.219c0,0.192,0.003,0.385,0.014,0.579
		c1.306-0.019,2.618-0.065,3.896-0.184c1.083-0.101,2.213-0.214,3.28-0.427c0.67-0.134,1.345-0.275,2.01-0.441
		c0.918-0.229,1.896-0.296,2.843-0.296c1.283,0,2.588,0.24,3.826,0.566C337.005,345.381,338.046,345.981,338.754,346.846
		L338.754,346.846z M93.699,307.246c0.063,0.749,0.098,1.5,0.098,2.247c0,1.745-0.174,3.495-0.454,5.219
		c-0.156,0.959-0.275,1.935-0.371,2.913c1.384-0.172,2.763-0.401,4.106-0.716c1.836-0.432,3.685-0.932,5.458-1.578
		c1.363-0.495,2.726-0.995,4.084-1.506c1.27-0.476,2.625-0.81,3.987-0.81c1.875,0,3.457,1.086,4.722,2.374
		c1.511,1.536,2.31,3.456,2.31,5.612c0,2.089-1.291,3.652-3.025,4.665c-1.469,0.86-3.125,1.474-4.754,1.951
		c-1.943,0.567-3.934,0.993-5.929,1.33c-2.04,0.345-4.088,0.649-6.14,0.906c-1.8,0.227-3.604,0.43-5.412,0.587
		c-0.422,0.038-0.844,0.074-1.266,0.111c-0.103,0.801-0.212,1.603-0.323,2.404c-0.297,2.124-0.33,4.418-0.33,6.561v2.643
		c1.689-0.098,3.378-0.227,5.053-0.412c1.866-0.205,3.731-0.421,5.592-0.672c1.312-0.177,2.626-0.361,3.935-0.567
		c1.249-0.194,2.514-0.294,3.779-0.294c2.077,0,3.733,1.16,4.928,2.786c1.005,1.367,1.747,2.948,1.747,4.676
		c0,1.627-0.73,3.053-2.07,3.976c-1.201,0.828-2.834,1.148-4.258,1.32c-1.961,0.24-3.99,0.306-5.966,0.335
		c-2.974,0.045-5.949,0.053-8.924,0.053c-3.208,0-7.343,0.022-10.482-0.637c-2.363-0.497-5.014-1.697-5.014-4.525
		c0-1.386,0.054-2.777,0.193-4.154c0.125-1.254,0.293-2.503,0.502-3.746c0.197-1.176,0.342-2.36,0.449-3.548
		c0.124-1.375,0.167-2.759,0.167-4.138v-8.683l0.008-0.105c0.185-2.503,0.694-4.976,1.429-7.375
		c0.537-1.751,0.948-3.651,0.948-5.491c0-0.573-0.024-1.231-0.159-1.79c-0.124-0.519-0.27-1.036-0.45-1.539
		c-0.194-0.545-0.382-1.093-0.561-1.642c-0.27-0.827-0.379-1.693-0.379-2.561c0-1.938,0.278-4.127,1.628-5.625
		c1.14-1.269,2.875-2.061,4.48-2.623c2.67-0.89,5.329-1.743,7.991-2.585c3.241-1.024,6.583-1.545,9.981-1.545
		c1.953,0,3.827,0.572,5.139,2.083c1.185,1.364,1.655,3.076,1.655,4.858v0.117l-0.009,0.115c-0.183,2.245-1.72,3.806-3.647,4.779
		c-1.654,0.836-3.433,1.466-5.212,1.975c-2.009,0.576-4.043,1.071-6.086,1.511C95.792,306.71,94.741,306.961,93.699,307.246
		L93.699,307.246z M122.38,335.792c0.297,2.333,0.546,4.671,0.756,7.013c0.228,2.536,0.408,5.076,0.529,7.621
		c0.111,2.341,0.193,4.685,0.236,7.029c0.034,1.935,0.059,3.871,0.059,5.808c0,1.804-0.012,3.61-0.059,5.416
		c-0.034,1.261-0.061,2.525-0.061,3.789v0.322l0.072,0.315c0.234,1.025,0.559,2.053,1.382,2.77c0.868,0.762,1.966,0.917,3.076,0.917
		c0.881,0,1.719-0.282,2.496-0.681c1.393-0.713,2.173-2.133,2.692-3.546c0.622-1.692,0.935-3.702,1.166-5.485
		c0.392-3.05,0.44-6.287,0.44-9.361c0-3.776-0.132-7.55-0.364-11.317c-0.172-2.789-0.418-5.573-0.729-8.35
		c0.997,0.089,1.999,0.141,3.001,0.141c4.39,0,8.807-0.814,12.588-3.145c3.07-1.894,5.792-4.261,7.91-7.193
		c1.852-2.564,3.332-5.38,4.19-8.433c0.609-2.166,1.181-4.634,1.181-6.893c0-2.721-1.001-5.125-2.872-7.096
		c-1.703-1.794-3.735-3.196-5.959-4.268c-2.29-1.104-4.701-1.939-7.167-2.553c-2.237-0.555-4.523-1.018-6.815-1.27l-0.303-0.033
		l-0.303,0.03c-1.827,0.19-3.67,0.697-5.403,1.291c-0.597,0.205-1.196,0.416-1.791,0.64c-0.925-2.17-2.447-4.037-5.029-4.037
		c-2.508,0-4.098,1.824-4.897,4.033c-0.73,2.019-0.902,4.713-0.936,7.012c-1.269,1.385-2.761,3.106-3.514,4.593
		c-0.606,1.197-1.024,2.502-1.024,3.854c0,1.637,0.909,2.956,2.198,3.888c0.693,0.5,1.56,0.898,2.451,1.222c0,0.249,0,0.498,0,0.749
		c0,1.074,0.043,2.162,0.159,3.237c-0.584,0.589-1.075,1.264-1.331,2.05c-0.258,0.794-0.378,1.622-0.378,2.454
		c0,1.47,0.314,2.901,0.863,4.263C121.332,333.677,121.835,334.746,122.38,335.792L122.38,335.792z M132.397,312.406
		c0.98-1.14,2.159-2.101,3.422-2.915c1.377-0.889,2.85-1.36,4.466-1.421c0.887,0.255,1.781,0.588,2.634,0.909
		c1.318,0.494,2.602,1.08,3.847,1.736c1.092,0.575,2.13,1.263,3.042,2.095c0.172,0.156,0.617,0.598,0.617,0.866
		c0,1.501-0.459,2.9-1.187,4.202c-0.897,1.603-2.164,2.925-3.63,4.023c-1.829,1.372-3.948,2.357-6.108,3.082
		c-2.108,0.707-4.335,1.056-6.56,1.17c-0.086-0.245-0.159-0.48-0.216-0.676c-0.329-1.121-0.422-2.372-0.422-3.537
		c0-1.064,0-2.127,0-3.191C132.302,316.638,132.345,314.521,132.397,312.406L132.397,312.406z M170.822,295.591
		c-0.376-0.109-0.746-0.236-1.113-0.379c-2.069-0.807-3.429-2.495-3.429-4.757c0-1.872,0.866-3.476,2.439-4.494
		c1.098-0.709,2.339-1.214,3.586-1.592c1.282-0.387,2.573-0.743,3.868-1.077c1.076-0.278,2.134-0.648,3.128-1.146l0.07-0.035
		c1.029-0.481,1.983-1.107,2.862-1.823c1.087-0.886,2.167-1.782,3.238-2.688c1.083-0.914,2.219-1.777,3.418-2.533
		c1.346-0.851,2.844-1.384,4.449-1.384c1.398,0,2.657,0.558,3.724,1.436c1.242,1.02,1.997,2.417,1.997,4.039
		c0,2.861-1.495,5.266-3.506,7.192c-1.917,1.835-4.083,3.39-6.385,4.704c0.237-0.006,0.474-0.007,0.711-0.007
		c1.953,0,3.827,0.572,5.14,2.084c1.185,1.363,1.655,3.076,1.655,4.857v0.117l-0.009,0.115c-0.183,2.245-1.721,3.806-3.648,4.779
		c-1.653,0.836-3.433,1.466-5.211,1.975c-2.009,0.576-4.042,1.071-6.086,1.511c-1.053,0.227-2.104,0.478-3.145,0.763
		c0.062,0.749,0.098,1.5,0.098,2.247c0,1.746-0.175,3.496-0.454,5.219c-0.157,0.959-0.275,1.935-0.371,2.913
		c1.384-0.172,2.762-0.401,4.106-0.716c1.836-0.432,3.685-0.932,5.457-1.578c1.363-0.495,2.727-0.995,4.085-1.506
		c1.269-0.477,2.624-0.81,3.988-0.81c1.875,0,3.457,1.086,4.721,2.372c1.511,1.538,2.311,3.458,2.311,5.614
		c0,2.089-1.291,3.652-3.024,4.665c-1.469,0.86-3.125,1.474-4.755,1.951c-1.942,0.567-3.933,0.993-5.929,1.33
		c-2.041,0.345-4.088,0.649-6.141,0.906c-1.799,0.227-3.603,0.429-5.41,0.587c-0.423,0.038-0.845,0.074-1.266,0.111
		c-0.104,0.801-0.212,1.603-0.324,2.404c-0.297,2.124-0.33,4.418-0.33,6.561v2.643c1.689-0.098,3.378-0.227,5.053-0.412
		c1.866-0.205,3.732-0.421,5.593-0.672c1.312-0.177,2.624-0.361,3.934-0.567c1.25-0.196,2.514-0.294,3.779-0.294
		c2.078,0,3.733,1.16,4.927,2.786c1.006,1.367,1.748,2.948,1.748,4.676c0,1.626-0.73,3.053-2.07,3.976
		c-1.2,0.828-2.834,1.148-4.258,1.32c-1.962,0.24-3.991,0.306-5.966,0.335c-2.974,0.045-5.95,0.053-8.925,0.053
		c-3.208,0-7.342,0.022-10.482-0.637c-2.363-0.497-5.014-1.697-5.014-4.525c0-1.386,0.055-2.776,0.193-4.156
		c0.126-1.252,0.293-2.501,0.502-3.743c0.197-1.177,0.343-2.362,0.45-3.548c0.123-1.375,0.167-2.758,0.167-4.138v-8.683l0.007-0.105
		c0.185-2.504,0.695-4.976,1.43-7.375c0.536-1.751,0.946-3.651,0.946-5.491c0-0.57-0.023-1.231-0.159-1.79
		c-0.125-0.519-0.27-1.036-0.449-1.538c-0.194-0.546-0.383-1.094-0.562-1.643c-0.269-0.827-0.378-1.693-0.378-2.561
		c0-1.938,0.278-4.127,1.628-5.626C168.315,296.817,169.56,296.118,170.822,295.591L170.822,295.591z M216.493,302.62
		c0.384-0.202,0.778-0.384,1.182-0.546c1.857-0.737,3.79-1.245,5.775-1.488c1.8-0.22,3.608-0.363,5.419-0.436
		c1.601-0.065,3.172-0.403,4.665-0.893c1.379-0.484,2.732-1.016,4.088-1.567c1.673-0.68,3.364-1.324,5.066-1.928
		c1.646-0.584,3.307-1.128,4.983-1.618c1.442-0.423,3.049-0.795,4.557-0.795c1.181,0,2.312,0.315,3.278,1.006
		c0.704,0.506,1.317,1.123,1.774,1.861c0.418,0.67,0.71,1.403,0.858,2.179c0.092,0.481,0.169,0.983,0.169,1.475
		c0,1.142-0.264,2.246-0.757,3.276c-0.355,0.736-0.762,1.465-1.259,2.114c-1.007,1.305-3.24,1.908-4.707,2.362
		c-2.43,0.752-4.896,1.412-7.363,2.029c-2.932,0.736-5.874,1.435-8.822,2.107c-2.667,0.608-5.34,1.19-8.02,1.693
		c-0.806,0.157-1.793,0.569-2.552,0.883c-1.219,0.503-2.374,1.155-3.458,1.904c-1.079,0.746-2.027,1.637-2.841,2.665
		c-0.542,0.686-0.873,1.422-0.873,2.305c0,0.489,0.466,1.158,0.75,1.517c0.855,1.074,1.89,2.026,2.973,2.867
		c1.32,1.026,2.732,1.929,4.2,2.728c1.415,0.768,2.886,1.47,4.406,2.032c1.206,0.452,2.409,1.037,3.432,1.829
		c0.78,0.604,1.51,1.275,2.151,2.025c0.541,0.634,1.048,1.299,1.511,1.99c0.292,0.435,0.668,0.824,1.061,1.169l0.064,0.056
		l0.06,0.059c1.192,1.176,2.362,2.373,3.492,3.603c0.953,1.036,1.931,2.047,2.935,3.031c0.969,0.947,2.031,1.798,3.145,2.57
		c1.383,0.956,2.919,1.771,4.452,2.5c2.588,1.269,5.663,3.302,5.663,6.545c0,1.404-0.089,3.039-1.044,4.161
		c-0.824,0.962-1.995,1.419-3.247,1.419c-1.822,0-3.685-0.199-5.424-0.771c-1.761-0.581-3.296-1.588-4.596-2.903l-0.035-0.036
		l-0.032-0.035c-3.559-3.859-7.699-7.495-11.682-10.91c-4.744-4.069-9.939-7.761-15.233-11.169c-0.068,1.47-0.133,2.94-0.193,4.409
		c-0.082,1.968-0.163,3.935-0.239,5.904c-0.075,1.914-0.117,3.831-0.117,5.746c0,1.204,0.012,2.437,0.11,3.639
		c0.068,0.837,0.129,1.693,0.129,2.533c0,2.458-1.389,4.398-3.842,4.895l-0.281,0.058h-0.287c-1.528,0-2.939-0.503-4.144-1.444
		c-1.149-0.896-2.012-2.062-2.34-3.5l-0.024-0.102l-0.016-0.105c-0.312-2.05-0.397-4.328-0.505-6.399
		c-0.186-3.541-0.316-7.087-0.42-10.63c-0.126-4.214-0.266-8.427-0.418-12.64c-0.148-4.161-0.272-8.326-0.358-12.491
		c-0.068-3.354-0.132-6.708-0.179-10.062c-0.024-1.807-0.06-3.62-0.06-5.427c0-1.746,0.059-3.493,0.186-5.234
		c0.124-1.657,0.393-3.326,0.908-4.91c0.489-1.501,1.233-2.908,2.344-4.044c1.285-1.315,2.952-1.959,4.787-1.959
		c1.95,0,3.707,0.765,4.816,2.414c0.849,1.26,1.262,2.695,1.262,4.212c0,0.929-0.09,1.894-0.4,2.778
		c-0.18,0.512-0.367,1.024-0.561,1.531c-0.174,0.461-0.318,0.935-0.438,1.413c-0.137,0.54-0.151,1.257-0.151,1.809
		c0,1.194-0.001,2.524,0.155,3.708C216.425,301.931,216.463,302.276,216.493,302.62L216.493,302.62z M272.516,307.246
		c1.041-0.285,2.092-0.536,3.144-0.763c2.043-0.439,4.076-0.935,6.086-1.511c1.779-0.509,3.558-1.139,5.211-1.975
		c1.928-0.973,3.465-2.534,3.646-4.779l0.011-0.115v-0.117c0-1.782-0.47-3.494-1.655-4.858c-1.311-1.511-3.187-2.083-5.138-2.083
		c-3.399,0-6.74,0.521-9.981,1.545c-2.662,0.841-5.321,1.694-7.991,2.585c-1.606,0.562-3.339,1.354-4.479,2.623
		c-1.35,1.498-1.628,3.688-1.628,5.625c0,0.868,0.111,1.734,0.379,2.561c0.18,0.549,0.369,1.097,0.562,1.642
		c0.181,0.503,0.325,1.02,0.45,1.539c0.135,0.559,0.16,1.217,0.16,1.79c0,1.84-0.412,3.74-0.948,5.491
		c-0.734,2.399-1.244,4.872-1.428,7.375l-0.008,0.105v8.683c0,1.379-0.044,2.763-0.168,4.138c-0.105,1.187-0.252,2.372-0.449,3.548
		c-0.208,1.243-0.376,2.491-0.501,3.746c-0.139,1.377-0.194,2.767-0.194,4.153c0,2.828,2.65,4.029,5.014,4.525
		c3.14,0.658,7.275,0.637,10.482,0.637c2.973,0,5.949-0.008,8.924-0.053c1.975-0.029,4.004-0.095,5.965-0.335
		c1.424-0.172,3.058-0.492,4.259-1.32c1.34-0.923,2.07-2.349,2.07-3.976c0-1.728-0.743-3.309-1.747-4.676
		c-1.194-1.626-2.851-2.786-4.928-2.786c-1.264,0-2.53,0.1-3.778,0.294c-1.311,0.205-2.624,0.39-3.936,0.567
		c-1.86,0.251-3.726,0.467-5.591,0.672c-1.675,0.184-3.366,0.314-5.055,0.412v-2.643c0-2.142,0.034-4.436,0.332-6.561
		c0.111-0.801,0.22-1.603,0.323-2.404c0.422-0.038,0.844-0.074,1.266-0.111c1.808-0.158,3.611-0.36,5.412-0.587
		c2.052-0.257,4.1-0.561,6.14-0.906c1.996-0.337,3.987-0.763,5.93-1.33c1.63-0.477,3.285-1.091,4.755-1.951
		c1.733-1.013,3.025-2.576,3.025-4.665c0-2.156-0.801-4.075-2.31-5.612c-1.266-1.288-2.847-2.374-4.723-2.374
		c-1.362,0-2.718,0.334-3.986,0.81c-1.359,0.512-2.722,1.011-4.085,1.506c-1.773,0.646-3.622,1.146-5.458,1.578
		c-1.342,0.315-2.722,0.545-4.106,0.716c0.096-0.977,0.215-1.953,0.371-2.913c0.281-1.724,0.455-3.474,0.455-5.219
		C272.613,308.746,272.577,307.995,272.516,307.246L272.516,307.246z M398.153,325.056c-2.091,0.426-4.282,1.015-6.065,1.915
		c-2.338,1.181-3.956,3.154-3.956,5.849c0,1.582,1.072,2.68,2.455,3.232c0.433,0.173,0.862,0.387,1.274,0.604
		c0.508,0.267,0.989,0.596,1.442,0.943c0.013,0.011,0.029,0.023,0.043,0.035c-0.555,1.265-1.048,2.567-1.415,3.887
		c-0.473,1.7-0.701,3.448-0.701,5.211c0,1.536,0.333,3.036,1.178,4.335c1.129,1.731,3.023,2.396,5.02,2.396
		c1.808,0,3.4-0.749,4.543-2.151c0.909-1.118,1.612-2.482,2.188-3.796c0.722-1.645,1.384-3.319,2.022-4.997
		c0.599-1.577,1.288-3.128,2.023-4.652c0.319-0.018,0.637-0.032,0.956-0.044c0.896-0.033,1.794-0.05,2.691-0.05
		c2.989,0,5.995,0.258,8.961,0.674c0.232,0.494,0.475,0.983,0.73,1.464c0.503,0.947,0.972,1.91,1.417,2.883
		c0.441,0.967,0.863,1.943,1.263,2.927c0.287,0.697,0.536,1.445,0.677,2.186c0.16,0.776,0.325,1.539,0.496,2.287
		c0.239,1.049,0.669,2.029,1.293,2.906c0.682,0.959,1.584,1.703,2.628,2.243c1.226,0.633,2.625,0.84,3.992,0.84
		c2.325,0,4.304-1.169,4.913-3.493c0.313-1.193,0.45-2.424,0.45-3.655c0-1.883-0.324-3.733-0.924-5.515
		c-0.551-1.641-1.183-3.257-1.88-4.842c-0.696-1.581-1.432-3.142-2.209-4.685c-0.651-1.292-1.218-2.629-1.67-4.005
		c-2.261-7.739-4.426-15.506-6.461-23.308c-1.854-7.107-3.512-14.272-4.908-21.481c-0.358-1.78-1.217-3.336-2.64-4.464
		c-1.358-1.078-2.966-1.613-4.698-1.613c-1.544,0-2.989,0.461-4.272,1.319c-1.546,1.035-2.493,2.657-3.083,4.381l-0.021,0.063
		c-0.534,1.689-0.988,3.419-1.419,5.136c-0.584,2.329-1.099,4.678-1.577,7.031c-0.544,2.679-1.062,5.363-1.559,8.05
		c-0.509,2.752-0.992,5.509-1.442,8.273c-0.412,2.536-0.813,5.076-1.196,7.618C398.509,322.342,398.318,323.698,398.153,325.056
		L398.153,325.056z M411.385,324.375c0.175-0.695,0.345-1.393,0.509-2.093c0.508-2.152,0.97-4.315,1.395-6.486
		c0.078-0.403,0.157-0.806,0.23-1.208c0.384,1.356,0.787,2.701,1.211,4.035c0.582,1.829,1.203,3.812,1.897,5.746
		c-0.875-0.038-1.753-0.058-2.628-0.058C413.127,324.312,412.255,324.332,411.385,324.375z"/>
	<path fill="none" stroke="#FFFFFF" stroke-miterlimit="10" d="M105.004,293.906c1.351,0,2.345,0.367,2.98,1.1
		c0.635,0.731,0.954,1.725,0.954,2.98c-0.079,0.976-0.775,1.795-2.086,2.458c-1.312,0.663-2.88,1.255-4.709,1.777
		c-1.827,0.524-3.795,1.012-5.901,1.466c-2.106,0.452-3.993,0.958-5.662,1.516c0.238,1.603,0.357,3.034,0.357,4.289
		c0,1.464-0.138,3.051-0.417,4.76c-0.278,1.708-0.497,3.888-0.655,6.538c3.02-0.209,5.643-0.576,7.867-1.099
		c2.225-0.524,4.153-1.081,5.782-1.673c1.629-0.594,3-1.099,4.112-1.518c1.113-0.418,2.106-0.628,2.98-0.628
		c0.795,0,1.69,0.506,2.682,1.517c0.994,1.011,1.491,2.214,1.491,3.609c0,0.837-0.537,1.57-1.61,2.197
		c-1.073,0.628-2.444,1.185-4.112,1.674c-1.669,0.488-3.537,0.905-5.604,1.254c-2.066,0.348-4.073,0.646-6.019,0.889
		c-1.947,0.244-3.715,0.436-5.306,0.576c-1.588,0.14-2.781,0.244-3.576,0.313c-0.158,1.396-0.357,2.947-0.595,4.655
		c-0.239,1.708-0.358,4.027-0.358,6.956v5.648c3.259-0.138,6-0.33,8.225-0.575c2.225-0.243,4.114-0.47,5.662-0.68
		c1.55-0.208,2.881-0.4,3.994-0.575c1.113-0.175,2.225-0.262,3.338-0.262c0.954,0,1.828,0.54,2.622,1.622
		c0.794,1.081,1.192,2.075,1.192,2.98c0,0.698-0.278,1.238-0.835,1.623c-0.556,0.382-1.55,0.661-2.98,0.835
		c-1.431,0.175-3.318,0.279-5.662,0.315c-2.345,0.035-5.305,0.052-8.881,0.052c-4.768,0-8.067-0.191-9.894-0.576
		c-1.828-0.383-2.743-0.959-2.743-1.725c0-1.395,0.06-2.684,0.179-3.871c0.119-1.185,0.278-2.37,0.477-3.555
		c0.199-1.185,0.357-2.441,0.476-3.766c0.12-1.326,0.179-2.79,0.179-4.393v-8.578c0.159-2.162,0.596-4.411,1.31-6.747
		c0.717-2.336,1.074-4.445,1.074-6.329c0-0.976-0.079-1.795-0.238-2.458c-0.158-0.662-0.338-1.272-0.536-1.831
		c-0.198-0.558-0.377-1.08-0.536-1.57c-0.159-0.487-0.239-1.045-0.239-1.674c0-1.811,0.298-3.05,0.894-3.713
		c0.595-0.662,1.688-1.272,3.278-1.831c2.304-0.767,4.947-1.62,7.927-2.563C98.864,294.378,101.904,293.906,105.004,293.906
		L105.004,293.906z M127.297,298.09c1.43,0,2.503,1.675,3.218,5.022c1.191-0.558,2.702-1.15,4.53-1.779
		c1.828-0.627,3.418-1.011,4.768-1.15c1.908,0.209,4.054,0.609,6.438,1.202c2.384,0.593,4.59,1.377,6.616,2.354
		c2.027,0.977,3.735,2.196,5.127,3.662c1.39,1.464,2.085,3.172,2.085,5.125c0,1.534-0.358,3.573-1.073,6.12
		c-0.714,2.546-1.966,5.056-3.755,7.531c-1.789,2.475-4.153,4.62-7.093,6.433c-2.94,1.813-6.636,2.72-11.086,2.72
		c-0.954,0-1.968-0.053-3.041-0.158c-1.072-0.105-2.165-0.33-3.278-0.679c0.556,4.184,0.953,8.21,1.192,12.082
		c0.239,3.87,0.358,7.583,0.358,11.14c0,3.836-0.14,6.834-0.418,8.996c-0.278,2.162-0.615,3.782-1.013,4.863
		c-0.398,1.083-0.834,1.743-1.311,1.989c-0.478,0.244-0.874,0.365-1.193,0.365c-0.635,0-1.033-0.069-1.192-0.209
		c-0.159-0.139-0.318-0.557-0.476-1.255c0-0.975,0.019-2.214,0.06-3.713c0.039-1.499,0.058-3.329,0.058-5.491
		c0-1.674-0.019-3.626-0.058-5.858c-0.04-2.232-0.12-4.602-0.239-7.112c-0.119-2.511-0.298-5.091-0.536-7.741
		c-0.238-2.65-0.517-5.196-0.835-7.636c-0.636-1.187-1.172-2.319-1.61-3.4c-0.436-1.081-0.655-2.144-0.655-3.19
		c0-0.558,0.08-1.081,0.238-1.57c0.159-0.488,0.716-1.081,1.669-1.778c-0.239-1.256-0.357-2.72-0.357-4.393c0-0.419,0-0.854,0-1.309
		c0-0.452,0.039-0.959,0.119-1.517c-1.827-0.488-3.079-0.976-3.755-1.464c-0.676-0.488-1.013-1.011-1.013-1.57
		c0-0.767,0.238-1.622,0.715-2.563c0.477-0.941,1.748-2.527,3.814-4.758c0-3.348,0.258-5.737,0.775-7.166
		C125.607,298.806,126.342,298.09,127.297,298.09L127.297,298.09z M129.562,311.376c-0.08,3.138-0.12,5.596-0.12,7.374
		c0,1.78,0,2.843,0,3.191c0,1.673,0.179,3.12,0.537,4.342c0.357,1.219,0.775,2.144,1.252,2.771c3.417,0,6.477-0.454,9.179-1.359
		c2.703-0.907,5.006-2.075,6.914-3.506c1.907-1.43,3.377-3.068,4.412-4.916c1.032-1.848,1.549-3.713,1.549-5.597
		c0-1.045-0.517-2.038-1.549-2.981c-1.035-0.941-2.246-1.778-3.637-2.51c-1.391-0.731-2.781-1.36-4.172-1.883
		c-1.391-0.523-2.484-0.889-3.278-1.098c-2.306,0-4.431,0.628-6.378,1.883C132.323,308.342,130.753,309.772,129.562,311.376
		L129.562,311.376z M189.882,293.906c1.35,0,2.344,0.367,2.98,1.1c0.636,0.731,0.954,1.725,0.954,2.98
		c-0.08,0.976-0.775,1.795-2.087,2.458c-1.311,0.663-2.88,1.255-4.709,1.777c-1.827,0.524-3.795,1.012-5.901,1.466
		c-2.105,0.452-3.993,0.958-5.662,1.516c0.239,1.603,0.358,3.034,0.358,4.289c0,1.464-0.139,3.051-0.417,4.76
		c-0.279,1.708-0.497,3.888-0.656,6.538c3.02-0.209,5.644-0.576,7.869-1.099c2.225-0.524,4.152-1.081,5.781-1.673
		c1.629-0.594,3-1.099,4.113-1.518c1.112-0.418,2.105-0.628,2.98-0.628c0.795,0,1.689,0.506,2.683,1.517
		c0.992,1.011,1.49,2.214,1.49,3.609c0,0.837-0.537,1.57-1.609,2.197c-1.074,0.628-2.444,1.185-4.113,1.674
		c-1.669,0.488-3.536,0.905-5.603,1.254c-2.065,0.348-4.072,0.646-6.019,0.889c-1.948,0.244-3.715,0.436-5.305,0.576
		c-1.59,0.14-2.782,0.244-3.577,0.313c-0.158,1.396-0.358,2.947-0.596,4.655c-0.238,1.708-0.358,4.027-0.358,6.956v5.648
		c3.259-0.138,6-0.33,8.226-0.575c2.225-0.243,4.113-0.47,5.662-0.68c1.549-0.208,2.881-0.4,3.993-0.575
		c1.113-0.175,2.226-0.262,3.339-0.262c0.953,0,1.828,0.54,2.622,1.622c0.794,1.081,1.192,2.075,1.192,2.98
		c0,0.698-0.278,1.238-0.834,1.623c-0.557,0.382-1.55,0.661-2.98,0.835c-1.431,0.175-3.319,0.279-5.663,0.315
		c-2.344,0.035-5.304,0.052-8.881,0.052c-4.768,0-8.067-0.191-9.894-0.576c-1.828-0.383-2.742-0.959-2.742-1.725
		c0-1.395,0.06-2.684,0.179-3.871c0.119-1.185,0.279-2.37,0.476-3.555c0.2-1.185,0.359-2.441,0.477-3.766
		c0.119-1.326,0.179-2.79,0.179-4.393v-8.578c0.16-2.162,0.596-4.411,1.311-6.747c0.716-2.336,1.073-4.445,1.073-6.329
		c0-0.976-0.08-1.795-0.238-2.458c-0.16-0.662-0.339-1.272-0.537-1.831c-0.199-0.558-0.377-1.08-0.537-1.57
		c-0.158-0.487-0.238-1.045-0.238-1.674c0-1.811,0.298-3.05,0.894-3.713c0.596-0.662,1.688-1.272,3.278-1.831
		c2.305-0.767,4.948-1.62,7.928-2.563C183.742,294.378,186.781,293.906,189.882,293.906L189.882,293.906z M193.337,276.542
		c0.637,0,1.272,0.262,1.908,0.786c0.636,0.522,0.953,1.133,0.953,1.83c0,1.743-0.875,3.452-2.622,5.126
		c-1.749,1.673-3.814,3.172-6.199,4.498c-2.384,1.325-4.848,2.387-7.39,3.191c-2.543,0.801-4.609,1.203-6.198,1.203
		c-0.954,0-1.968-0.21-3.041-0.629c-1.073-0.417-1.61-1.115-1.61-2.092c0-0.906,0.379-1.604,1.134-2.092
		c0.755-0.488,1.708-0.907,2.86-1.255c1.153-0.349,2.404-0.697,3.755-1.047c1.351-0.348,2.584-0.801,3.696-1.36
		c1.192-0.558,2.344-1.29,3.457-2.197c1.112-0.906,2.204-1.813,3.278-2.72c1.073-0.906,2.106-1.673,3.1-2.301
		C191.412,276.855,192.384,276.542,193.337,276.542L193.337,276.542z M211.935,359.808c-0.875,0-1.67-0.278-2.384-0.836
		c-0.714-0.558-1.152-1.186-1.311-1.884c-0.159-1.045-0.319-3.086-0.477-6.118c-0.16-3.035-0.298-6.557-0.418-10.566
		c-0.118-4.01-0.259-8.229-0.417-12.657c-0.158-4.43-0.278-8.579-0.357-12.448c-0.079-3.871-0.139-7.218-0.179-10.043
		c-0.038-2.824-0.059-4.619-0.059-5.386c0-1.743,0.059-3.418,0.179-5.021c0.119-1.606,0.378-3.017,0.775-4.237
		c0.397-1.22,0.954-2.196,1.668-2.928c0.716-0.734,1.63-1.099,2.742-1.099c1.112,0,1.928,0.385,2.443,1.151
		c0.518,0.766,0.776,1.639,0.776,2.615c0,0.767-0.08,1.377-0.239,1.831c-0.159,0.455-0.338,0.941-0.537,1.464
		c-0.198,0.523-0.376,1.099-0.537,1.726c-0.158,0.628-0.237,1.464-0.237,2.51c0,1.814,0.059,3.174,0.178,4.08
		c0.121,0.907,0.18,1.847,0.18,2.825c0,0.556,0,1.133,0,1.726c0,0.592-0.04,1.272-0.121,2.038c1.75-1.883,3.458-3.155,5.127-3.817
		c1.669-0.662,3.359-1.099,5.067-1.309c1.709-0.208,3.437-0.348,5.186-0.418c1.748-0.069,3.577-0.418,5.484-1.045
		c1.192-0.419,2.603-0.959,4.232-1.622c1.629-0.663,3.278-1.29,4.947-1.883c1.669-0.592,3.278-1.116,4.828-1.568
		c1.549-0.454,2.801-0.682,3.755-0.682c0.636,0,1.173,0.157,1.609,0.472c0.437,0.315,0.774,0.662,1.014,1.047
		c0.239,0.383,0.397,0.783,0.476,1.203c0.079,0.417,0.12,0.731,0.12,0.941c0,0.697-0.16,1.377-0.476,2.04
		c-0.318,0.661-0.637,1.202-0.954,1.62c-0.159,0.279-1.253,0.733-3.279,1.361c-2.026,0.627-4.43,1.29-7.211,1.986
		c-2.783,0.698-5.703,1.396-8.763,2.093c-3.059,0.697-5.702,1.254-7.927,1.673c-0.716,0.139-1.748,0.488-3.099,1.046
		c-1.352,0.558-2.682,1.289-3.994,2.196c-1.311,0.907-2.464,1.987-3.456,3.243c-0.994,1.255-1.492,2.615-1.492,4.079
		c0,1.046,0.458,2.145,1.371,3.296c0.915,1.15,2.068,2.266,3.458,3.346c1.39,1.081,2.92,2.075,4.589,2.982
		c1.67,0.908,3.258,1.639,4.769,2.197c1.112,0.419,2.006,0.889,2.682,1.412c0.675,0.524,1.252,1.064,1.729,1.622
		c0.476,0.558,0.913,1.132,1.311,1.726c0.397,0.592,0.914,1.167,1.549,1.725c1.272,1.256,2.404,2.423,3.398,3.504
		c0.994,1.082,2.006,2.128,3.039,3.138c1.033,1.011,2.205,1.97,3.516,2.877c1.311,0.908,2.921,1.813,4.828,2.719
		c2.702,1.326,4.054,2.65,4.054,3.975c0,1.255-0.119,2.023-0.357,2.302c-0.239,0.278-0.597,0.419-1.074,0.419
		c-1.749,0-3.258-0.21-4.53-0.63c-1.272-0.418-2.424-1.15-3.458-2.195c-2.701-2.929-6.675-6.643-11.92-11.141
		c-5.246-4.498-11.842-9.188-19.789-14.069c0,1.046-0.04,2.387-0.118,4.026c-0.08,1.64-0.16,3.417-0.24,5.335
		c-0.078,1.918-0.158,3.889-0.237,5.911c-0.08,2.022-0.119,3.976-0.119,5.857c0,1.604,0.039,2.895,0.119,3.871
		c0.079,0.977,0.12,1.744,0.12,2.302C213.486,358.901,212.969,359.598,211.935,359.808L211.935,359.808z M283.819,293.906
		c1.351,0,2.344,0.367,2.98,1.1c0.635,0.731,0.953,1.725,0.953,2.98c-0.08,0.976-0.775,1.795-2.088,2.458
		c-1.308,0.663-2.878,1.255-4.707,1.777c-1.828,0.524-3.795,1.012-5.901,1.466c-2.105,0.452-3.993,0.958-5.662,1.516
		c0.239,1.603,0.357,3.034,0.357,4.289c0,1.464-0.138,3.051-0.416,4.76c-0.278,1.708-0.497,3.888-0.655,6.538
		c3.019-0.209,5.642-0.576,7.867-1.099c2.225-0.524,4.152-1.081,5.781-1.673c1.629-0.594,3.001-1.099,4.113-1.518
		c1.113-0.418,2.106-0.628,2.98-0.628c0.795,0,1.689,0.506,2.683,1.517c0.993,1.011,1.49,2.214,1.49,3.609
		c0,0.837-0.536,1.57-1.608,2.197c-1.074,0.628-2.446,1.185-4.115,1.674c-1.67,0.488-3.536,0.905-5.602,1.254
		c-2.067,0.348-4.074,0.646-6.02,0.889c-1.947,0.244-3.715,0.436-5.305,0.576c-1.589,0.14-2.781,0.244-3.576,0.313
		c-0.159,1.396-0.357,2.947-0.595,4.655c-0.238,1.708-0.357,4.027-0.357,6.956v5.648c3.258-0.138,5.999-0.33,8.224-0.575
		c2.226-0.243,4.114-0.47,5.664-0.68c1.548-0.208,2.881-0.4,3.992-0.575c1.114-0.175,2.227-0.262,3.339-0.262
		c0.953,0,1.828,0.54,2.622,1.622c0.795,1.081,1.193,2.075,1.193,2.98c0,0.698-0.279,1.238-0.835,1.623
		c-0.556,0.382-1.549,0.661-2.98,0.835c-1.433,0.175-3.318,0.279-5.662,0.315c-2.346,0.035-5.305,0.052-8.882,0.052
		c-4.767,0-8.067-0.191-9.895-0.576c-1.828-0.383-2.742-0.959-2.742-1.725c0-1.395,0.06-2.684,0.179-3.871
		c0.119-1.185,0.278-2.37,0.477-3.555c0.198-1.185,0.356-2.441,0.475-3.766c0.121-1.326,0.181-2.79,0.181-4.393v-8.578
		c0.158-2.162,0.596-4.411,1.311-6.747c0.716-2.336,1.074-4.445,1.074-6.329c0-0.976-0.081-1.795-0.239-2.458
		c-0.158-0.662-0.338-1.272-0.535-1.831c-0.2-0.558-0.378-1.08-0.537-1.57c-0.159-0.487-0.239-1.045-0.239-1.674
		c0-1.811,0.299-3.05,0.895-3.713c0.596-0.662,1.688-1.272,3.278-1.831c2.305-0.767,4.948-1.62,7.929-2.563
		C277.679,294.378,280.72,293.906,283.819,293.906L283.819,293.906z M304.323,290.455c1.351,0,2.8,0.226,4.351,0.68
		c1.551,0.453,3.716,0.854,6.497,1.202c1.907,0.28,3.795,0.506,5.662,0.68c1.868,0.174,3.397,0.541,4.59,1.098
		c1.272,0.489,1.907,1.29,1.907,2.406c0,0.558-0.197,0.942-0.594,1.15c-0.399,0.21-1.192,0.315-2.385,0.315
		c-0.874,0-1.907-0.07-3.1-0.21c-1.192-0.138-2.582-0.313-4.172-0.522c0.317,3.766,0.536,7.496,0.655,11.193
		c0.12,3.696,0.181,7.427,0.181,11.193c0,2.232-0.041,4.307-0.119,6.224c-0.081,1.918-0.181,3.871-0.299,5.858
		c-0.12,1.987-0.219,4.062-0.299,6.223c-0.079,2.163-0.119,4.603-0.119,7.324c0,0.766,0.059,1.481,0.179,2.144
		c0.119,0.662,0.257,1.098,0.417,1.306c2.783,0,4.928-0.069,6.437-0.208c1.51-0.139,2.702-0.297,3.577-0.472
		c0.874-0.174,1.589-0.33,2.144-0.47c0.558-0.138,1.273-0.209,2.147-0.209c0.874,0,1.906,0.157,3.099,0.47
		c1.192,0.315,1.789,0.924,1.789,1.833c0,1.184-0.915,2.109-2.742,2.77c-1.828,0.663-4.033,1.168-6.616,1.518
		c-2.583,0.348-5.226,0.558-7.928,0.628c-2.701,0.07-4.926,0.105-6.675,0.105c-1.352,0-2.881-0.035-4.589-0.105
		c-1.71-0.069-3.32-0.244-4.828-0.524c-1.511-0.278-2.781-0.714-3.814-1.307c-1.034-0.592-1.549-1.376-1.549-2.353
		c0-1.187,0.753-1.953,2.263-2.303c1.51-0.348,3.457-0.521,5.842-0.521c0.636,0,1.251,0,1.847,0c0.596,0,1.212,0.035,1.847,0.104
		l0.477-2.093c-0.078-10.111-0.217-18.044-0.417-23.797c-0.199-5.753-0.457-9.536-0.774-11.35c-0.16-1.047-0.278-2.161-0.357-3.347
		c-0.081-1.185-0.121-2.406-0.121-3.663c0-1.952,0.121-4.079,0.358-6.38c-2.78-0.906-4.668-1.813-5.661-2.719
		c-0.995-0.907-1.491-1.813-1.491-2.72c0-0.278,0.16-0.54,0.477-0.783C302.734,290.577,303.369,290.455,304.323,290.455
		L304.323,290.455z M348.551,302.276c-1.353,2.719-2.028,5.509-2.028,8.369c0,1.673,0.119,3.713,0.358,6.119
		c0.238,2.405,0.515,4.847,0.834,7.322c0.317,2.476,0.596,4.813,0.835,7.008c0.237,2.198,0.357,3.888,0.357,5.074
		c0,1.883,0,3.818,0,5.806c0,1.986,0.02,3.836,0.06,5.544c0.04,1.709,0.059,3.208,0.059,4.497c0,1.29,0,2.179,0,2.668
		c0,1.603-0.299,2.928-0.895,3.974c-0.597,1.047-1.292,1.569-2.086,1.569c-0.954,0-1.927-0.767-2.92-2.302
		c-0.995-1.533-1.491-3.277-1.491-5.229c0-5.439-0.059-10.758-0.178-15.953c-0.119-5.195-0.18-9.675-0.18-13.441
		c0-2.093,0.061-4.881,0.18-8.369c0.12-3.486,0.318-6.956,0.596-10.407c0.278-3.452,0.656-6.591,1.133-9.415
		c0.476-2.823,1.112-4.655,1.907-5.491c1.51,1.047,3.059,2.423,4.649,4.132c1.589,1.708,3.08,3.609,4.47,5.701
		c1.391,2.092,2.662,4.29,3.815,6.591c1.152,2.302,2.087,4.603,2.801,6.904c0.4,1.325,0.856,2.895,1.371,4.707
		c0.517,1.813,1.213,4.08,2.086,6.799c0.716,2.372,1.43,4.567,2.145,6.59c0.716,2.022,1.431,3.923,2.147,5.7
		c0.716,1.779,1.45,3.505,2.205,5.18c0.753,1.673,1.57,3.348,2.443,5.02c0.477-1.465,0.895-2.684,1.252-3.661
		c0.359-0.977,0.695-1.883,1.014-2.721c0.317-0.836,0.576-1.691,0.774-2.561c0.2-0.872,0.379-1.936,0.537-3.192
		c0.238-1.813,0.457-4.01,0.655-6.591c0.198-2.58,0.399-5.247,0.596-8.001c0.199-2.755,0.418-5.457,0.655-8.107
		c0.239-2.65,0.518-4.986,0.834-7.01c0.318-1.603,0.637-2.91,0.953-3.922c0.319-1.011,0.995-1.517,2.028-1.517
		c1.271,0,2.324,0.366,3.159,1.098c0.834,0.733,1.251,1.518,1.251,2.354c0,0.418-0.08,1.5-0.239,3.243
		c-0.159,1.743-0.357,3.8-0.597,6.172c-0.237,2.371-0.515,4.898-0.834,7.584c-0.318,2.685-0.597,5.161-0.834,7.427
		c-0.239,2.266-0.438,4.184-0.596,5.754c-0.159,1.569-0.239,2.424-0.239,2.562c0,1.673-0.099,3.086-0.297,4.237
		c-0.199,1.15-0.458,2.336-0.774,3.556c-0.318,1.221-0.656,2.649-1.014,4.289c-0.358,1.64-0.695,3.749-1.014,6.328
		c-0.317,2.442-0.655,4.394-1.013,5.859c-0.357,1.463-0.794,2.579-1.311,3.348c-0.518,0.767-1.152,1.255-1.908,1.463
		c-0.755,0.21-1.728,0.314-2.92,0.314c-0.953,0-1.77-0.54-2.444-1.621c-0.674-1.08-1.251-2.458-1.728-4.132
		c-0.477-1.675-0.856-3.522-1.132-5.544c-0.278-2.023-0.536-3.976-0.775-5.859c-0.237-1.951-0.675-3.974-1.311-6.065
		c-0.636-2.092-1.331-4.08-2.087-5.962c-0.755-1.883-1.57-3.592-2.445-5.126c-0.874-1.533-1.667-2.789-2.383-3.766
		c0-1.184-0.279-2.998-0.834-5.439c-0.558-2.442-1.312-4.883-2.266-7.323c-1.192-3.068-2.343-5.509-3.455-7.322
		C351.371,305.274,350.06,303.67,348.551,302.276L348.551,302.276z M433.308,353.323c-1.113,0-2.007-0.174-2.682-0.523
		c-0.676-0.348-1.212-0.802-1.609-1.36c-0.397-0.558-0.675-1.186-0.834-1.884c-0.159-0.696-0.318-1.429-0.477-2.196
		c-0.159-0.836-0.437-1.744-0.835-2.719c-0.397-0.977-0.834-1.989-1.311-3.034c-0.478-1.047-0.974-2.057-1.49-3.035
		c-0.518-0.976-0.935-1.883-1.251-2.719c-3.975-0.628-7.63-0.941-10.969-0.941c-0.952,0-1.886,0.017-2.801,0.052
		c-0.913,0.035-1.808,0.087-2.682,0.156c-1.193,2.37-2.145,4.497-2.862,6.381c-0.716,1.883-1.369,3.504-1.967,4.864
		c-0.595,1.359-1.191,2.406-1.787,3.138c-0.597,0.733-1.37,1.098-2.325,1.098c-1.272,0-2.146-0.365-2.622-1.098
		c-0.478-0.731-0.716-1.655-0.716-2.772c0-1.533,0.199-3.015,0.596-4.446c0.397-1.428,1.034-3.05,1.908-4.863
		c-0.399-0.907-0.915-1.604-1.55-2.092c-0.637-0.488-1.252-0.89-1.848-1.204c-0.596-0.314-1.112-0.558-1.549-0.732
		c-0.436-0.174-0.655-0.366-0.655-0.575c0-1.395,0.793-2.494,2.382-3.295c1.591-0.803,4.053-1.482,7.392-2.04
		c0.159-1.673,0.418-3.697,0.774-6.068c0.359-2.37,0.755-4.899,1.193-7.583c0.436-2.685,0.914-5.422,1.43-8.212
		c0.518-2.79,1.034-5.457,1.55-8.002c0.516-2.546,1.033-4.847,1.55-6.904s0.974-3.713,1.37-4.969
		c0.478-1.394,1.133-2.37,1.967-2.929c0.835-0.558,1.73-0.837,2.683-0.837c1.112,0,2.087,0.332,2.921,0.994
		c0.834,0.663,1.371,1.586,1.608,2.772c1.352,6.974,3,14.193,4.949,21.655c1.945,7.461,4.111,15.271,6.495,23.43
		c0.478,1.464,1.093,2.947,1.85,4.445c0.754,1.5,1.469,3.017,2.145,4.55c0.676,1.535,1.271,3.069,1.788,4.604
		c0.515,1.533,0.774,3.067,0.774,4.602c0,1.046-0.119,2.023-0.357,2.929C435.215,352.87,434.5,353.323,433.308,353.323
		L433.308,353.323z M407.56,327.59c1.111-0.14,2.184-0.245,3.219-0.314c1.032-0.07,2.105-0.105,3.217-0.105
		c1.114,0,2.265,0.035,3.457,0.105c1.192,0.068,2.384,0.174,3.576,0.314c-0.876-1.814-2.065-5.091-3.576-9.834
		c-1.511-4.741-3.02-10.703-4.53-17.886c-0.397,2.998-0.795,5.752-1.193,8.263c-0.396,2.512-0.813,4.883-1.251,7.113
		c-0.438,2.233-0.893,4.36-1.37,6.382C408.631,323.649,408.117,325.637,407.56,327.59z"/>
	<path fill-rule="evenodd" clip-rule="evenodd" fill="#FFFFFF" d="M341.48,152.435c0,0-3.669-4.333-3.669-7.653
		c0-3.319-1.737-11.51-11.199-14.645c-0.942-0.313-1.789-0.541-2.554-0.701v6.794c4.444-0.289,7.466,4.072,7.767,10.385
		c0.383,8.003-1.704,13.304-7.767,13.772v4.018c2.978,0.147,6.214-0.854,8.54-4.558c0,0-0.386-1.22,2.703-1.001
		c3.089,0.219,7.144-1.283,8.69-3.664C345.535,152.8,342.638,152.984,341.48,152.435L341.48,152.435z M324.058,227.686v-13.913
		c0.4,2.055,0.887,4.187,1.479,6.395c0.378,1.413,0.923,4.058,2.722,3.831c1.837-0.233,13.625-1.151,13.625-1.151
		s3.87-0.078,1.537-4.26c-2.33-4.181-9.328-12.395-17.171-35.365c0,0-1.184-4.376-2.191-1.659v-15.229
		c2.889-0.136,5.663,3.073,6.333,3.931c0.811,1.04,2.843,3.312,4.67,5.16c1.828,1.848,14.012,7.84,17.871,8.906
		c3.858,1.064,6.294,4.402,3.451,6.327c-2.841,1.927-4.466,0.502-7.106-0.858c-2.641-1.36-10.357-5.454-14.823-7.788
		c-4.469-2.336-3.047,0.411-3.047,0.411c1.421,6.239,16.244,31.705,17.87,34.438c1.624,2.734,2.64,3.543,2.03,5.982
		c-0.609,2.439-6.092,3.66-6.092,3.66c0,13.84,7.188,27.216,12.793,38.907c0,0,3.249,5.687-0.405,5.919
		c-3.656,0.233-5.281-2.72-11.576-12.578c-6.295-9.858-8.528-30.885-8.528-30.885c-1.828,0.552-5.485,0.567-5.485,0.567
		c-2.233,8.653,7.921,33.106,7.921,33.106s4.467,8.447,1.016,9.539c-3.452,1.092-5.077-1.424-5.077-1.424
		c-8.733-16.905-10.154-41.257-10.154-41.257C325.122,228.217,324.568,227.975,324.058,227.686z M324.058,129.436
		c-6.905-1.45-6.907,2.755-6.907,2.755s-7.337,4.408-7.337,14.161c0,0,0.192,1.856-0.966,3.589c-1.158,1.734-5.793,4.31-1.544,7.983
		c0,0,0.773,0.988,2.702,0.866c1.932-0.122,4.828,1.354,6.565,2.904c0.933,0.832,4.035,2.541,7.487,2.711v-4.018l-0.15,0.011
		c-6.178,0.393-6.564-6.847-7.53-13.011c-0.966-6.164,3.669-9.779,3.669-9.779c1.428-0.858,2.774-1.298,4.011-1.379V129.436
		L324.058,129.436z M324.058,166.337v15.229c-0.199,0.535-0.39,1.344-0.565,2.517c-0.889,5.978-2.074,16.142,0.565,29.69v13.913
		c-6.606-3.726-6.257-15.59-6.257-15.59c-1.015-31.361,2.032-31.555,2.032-31.555c1.015-5.738-1.828-1.63-1.828-1.63
		s-2.843,4.109-6.093,8.462c-3.247,4.353-3.451,6.766-4.263,9.654c-0.813,2.89-2.843,7.164-2.843,7.164
		c-4.875,5.111-4.875-1.655-5.888-3.118c-1.017-1.463,2.434-4.737,4.059-7.242c1.625-2.503,3.046-6.959,5.076-11.67
		c2.032-4.712,11.169-12.712,11.169-12.712l3.009-2.526C322.833,166.544,323.448,166.366,324.058,166.337z"/>
	<path fill-rule="evenodd" clip-rule="evenodd" fill="#FFFFFF" d="M386.262,170.7c0.3,0.048,0.614,0.119,0.944,0.219
		c4.254,1.282,6.238,5.183,5.813,7.874c-0.425,2.691,0.853,9.248-4.963,10.67c0,0-0.747,0.046-1.794-0.136v5.143
		c5.264,1.34,7.424-1.646,9.677-5.908c0.833-1.572,1.326-3.001,1.607-4.372c1.406-6.904,0.199-16.026-7.344-18.988
		c-1.285-0.505-2.63-0.806-3.94-0.888V170.7L386.262,170.7z M386.262,242.497v-46.113c0.67,0.275,1.34,0.761,1.733,1.611
		c0.998,2.161,17.872,27.939,17.872,27.939s2.397,5.229-1.198,6.936c-3.594,1.707-4.892-2.208-4.892-2.208l-11.582-18.049
		c0,0-1.498-3.295-1.199,0.711c0.3,4.007,0,12.985,0,12.985l13.479,35.021c0,0,2.396,6.518-0.5,8.739
		c-3.588,2.754-7.664-10.092-8.365-11.931C389.806,253.407,387.902,247.523,386.262,242.497z M381.108,172.916
		c0,0,1.57-2.792,5.154-2.216v-6.386c-1.373-0.086-2.707,0.068-3.893,0.48c-1.83,0.637-3.446,2.012-5.374,4.419
		c-4.112,5.136-2.553,17.062,3.97,22.431c1.835,1.511,3.536,2.342,5.032,2.756l0.266,0.07v-5.143
		c-1.651-0.287-4.05-1.142-5.438-3.644C378.555,181.596,379.406,175.299,381.108,172.916L381.108,172.916z M386.262,196.384v46.113
		c-0.634-1.944-1.229-3.762-1.762-5.332c0,0-0.598-4.474-1.796-1.079c-1.199,3.394-4.994,11.623-4.893,16.034
		c0.099,4.412-0.2,10.278-4.194,16.012c0,0-2.895,2.545-4.093-1.466c-1.198-4.009,1.898-18.976,8.886-38.51
		c0,0,0.499-1.763,0.499-3.481c0-1.717,1.298-19.478,1.298-19.478s0.1-1.168-0.898-1.29c-0.999-0.122-16.275-3.6-25.363-11.471
		c0,0-1.286-0.723-0.748-2.664c0.921-3.33,3.214-2.979,6.179-1.974c0.266,0.089,0.529,0.24,0.806,0.372
		c3.06,1.454,3.771,2.945,7.318,3.958c6.274,1.793,16.412,3.865,16.7,3.9C384.201,196.029,385.23,195.957,386.262,196.384z"/>
	<path fill-rule="evenodd" clip-rule="evenodd" fill="#FFFFFF" d="M282.236,156.188c0,0-0.491-16.354-9.852-19.975
		c-3.192-1.235-6.193-2.286-9.035-2.67v11.742c4.624-0.252,6.363,2.117,7.558,4.699c1.314,2.839-0.492,15.944-4.762,20.702
		c-0.971,1.08-1.906,1.701-2.795,1.979v5.465c0.624-0.086,1.282-0.235,1.974-0.459c7.883-2.553,9.689-13.893,9.689-13.893
		s2.134-0.261,2.792,1.247c0.657,1.508,5.583,2.671,7.061-0.334c1.478-3.005-1.807-5.603-1.807-5.603L282.236,156.188
		L282.236,156.188z M263.348,273.025v-21.8c1.118,3.652,2.17,6.754,2.538,7.423c0.837,1.518,3.182,8.61,2.01,12.532
		C267.126,273.759,265.198,273.913,263.348,273.025L263.348,273.025z M263.348,229.729c1.082,0.346,1.59,0.843,2.538,4.622
		c1.356,5.397,8.708,23.772,11.388,31.183c2.679,7.411,7.537,9.336,9.044,8.612c1.507-0.724,3.349-3.649,1.507-8.822
		c-1.842-5.175-7.871-17.575-9.044-30.391c0,0-1.842-4.454,1.005-4.443c2.848,0.012,5.862-1.797,6.531-4.578
		c0.67-2.781-2.679-8.491-2.679-8.491s-8.875-17.272-9.881-19.31c-1.004-2.036-1.172-4.716,2.512-2.287
		c3.684,2.429,15.909,7.954,18.086,8.047c2.176,0.094,9.378-1.506,7.368-5.76c-2.008-4.254-24.283-11.789-24.283-11.789
		s-2.956-1.576-5.321-2.772c-3.53-1.786-3.965-2.077-8.086-0.885l-0.687,0.197v11.44c1.385,0.508,2.368,3.004,2.368,3.004
		l11.081,22.986c2.801,5.808-3.895,3.748-3.895,3.748s-4.392-2.1-9.554-3.004V229.729z M263.348,133.544
		c-5.493-0.742-10.396,1.013-14.942,8.78c0,0-4.433,10.955-5.254,12.114c-0.822,1.16-4.27,2.64-0.494,5.356
		c3.777,2.714,6.24,1.355,6.24,1.355s1.151,6.213,3.12,9.149c1.798,2.679,4.827,8.73,11.329,7.834v-5.465
		c-3.031,0.949-5.534-2.074-7.059-4.48c-1.97-3.113-0.163-16.747-0.163-16.747s0-5.118,5.748-5.998
		c0.521-0.08,1.012-0.131,1.475-0.156V133.544L263.348,133.544z M263.348,182.864v11.44c-0.85-0.312-1.85,0.122-2.867,2.335
		c-2.679,5.824-7.307,17.12-7.307,17.12s-2.922,7.555,4.263,6.938c1.952-0.167,3.984,0.003,5.911,0.34v8.691
		c-0.464-0.148-1.032-0.269-1.784-0.609c-2.514-1.133-2.878,0.892-2.878,0.892s0.67,3.877,1.34,8.475
		c0.374,2.572,1.901,8.099,3.322,12.738v21.8c-0.965-0.464-1.907-1.21-2.652-2.044c-2.178-2.433-2.68-7.77-3.349-10.029
		c-0.67-2.259-8.541-34.413-8.541-34.413c-4.354-1.447-2.679-8.491-1.507-11.874c1.172-3.383,6.196-16.235,7.535-20.359
		c1.341-4.124-1.339-3.256-1.339-3.256c-11.388-0.587-23.279-7.952-23.279-7.952s-7.201-2.179-3.516-7.669
		c3.684-5.489,7.034-1.4,7.871-0.243c0.837,1.158,3.349,2.83,3.349,2.83c1.913,1.459,9.798,3.732,15.071,5.083
		C257.409,184.233,258.933,184.116,263.348,182.864z"/>
	<path fill-rule="evenodd" clip-rule="evenodd" fill="#FFFFFF" d="M194.912,113.505l-0.08,0.011v-6.564
		c6.406-0.475,12.952,2.956,15.001,10.627c3.677,13.768-2.162,22.316-2.162,22.316c-4.313,6.05-8.922,7.636-12.839,7.424v-5.653
		c5.168-0.62,8.767-7.419,8.946-13.141C203.994,121.624,205.075,113.903,194.912,113.505L194.912,113.505z M194.831,244.898v-24.939
		c2.397,5.359,14.886,43.418,14.886,43.418c3.105-0.422,5.424,0.353,6.864,0.721c1.669,0.426,3.147,2.303,2.618,4.47
		c-0.151,0.616-0.533,1.032-0.96,1.312c-1.433,0.937-2.71,0.381-4.131,0.132c-2.959-0.518-7.713-1.347-9.205-1.57
		c-2.222-0.333-2.038-2.59-2.038-3.605c0-1.014-2.037-7.665-5.741-14.919C196.314,248.328,195.546,246.626,194.831,244.898
		L194.831,244.898z M194.831,202.564v-45.982c2.714-0.079,4.886,0.842,4.886,0.842s21.853,9.874,26.482,12.141
		c4.629,2.268,4.445,4.524,4.075,6.803c-0.372,2.279-5.556,2.111-5.556,2.111s-19.445-7.736-22.965-9.33
		c-3.518-1.593-2.592,0.526-2.592,0.526S196.393,190.316,194.831,202.564z M194.831,113.517c-0.794,0.127-7.339,1.386-8.354,8.859
		c-1.081,7.958-1.946,16.125,4.974,18.822c1.183,0.461,2.315,0.596,3.38,0.468v5.653c-5.512-0.298-9.652-4.158-9.652-4.158
		c-9.082-15.467-3.027-27.835-3.027-27.835c2.585-5.151,7.588-7.995,12.679-8.374V113.517L194.831,113.517z M194.831,156.581v45.982
		c-0.614,4.812-1.041,8.329-1.041,8.787c0,0.811-0.139,2.403-0.116,3.998c0.023,1.596,0.208,3.198,0.857,4.03
		c0.067,0.086,0.169,0.287,0.3,0.579v24.939c-2.548-6.16-4.433-12.654-5.3-15.559c-1.111-3.72-1.667-1.011-2.222,0.885
		c-0.555,1.896-13.889,34.411-13.889,34.411s-3.333,7.925-8.518,9.788c-5.186,1.861-4.26-1.502-4.26-1.502
		c-1.296-5.118,2.408-5.984,3.704-6.956c1.296-0.973,2.222-3.728,2.222-3.728c1.111-4.401,18.334-48.768,19.445-52.966
		c1.111-4.198,4.074-30.756,4.63-35.697c0.556-4.941-2.407-0.31-2.407-0.31s-13.705,17.537-17.593,22.689
		c-3.889,5.153-5.741,1.728-5.741,1.728c-3.334-5.676,2.222-9.615,2.222-9.615l20-27.048
		C189.274,157.607,192.29,156.656,194.831,156.581z"/>
	<path fill="#FFFFFF" d="M448.469,415.849c-0.066,0.761,0.517,1.451,1.395,1.588c0.714,0.112,1.241-0.187,1.317-0.783l0.17-1.825
		c0.018-0.651-0.455-1.324-1.229-1.554c-0.83-0.239-1.464,0.098-1.536,0.74L448.469,415.849z M441.25,414.706
		c-0.066,0.763,0.517,1.444,1.397,1.566c0.715,0.099,1.243-0.208,1.318-0.807l0.17-1.83c0.019-0.652-0.455-1.317-1.231-1.534
		c-0.831-0.224-1.467,0.123-1.54,0.767L441.25,414.706z M434.028,413.564c-0.066,0.765,0.518,1.436,1.399,1.543
		c0.716,0.087,1.245-0.23,1.32-0.831l0.171-1.834c0.019-0.652-0.456-1.31-1.233-1.514c-0.832-0.21-1.468,0.148-1.542,0.795
		L434.028,413.564z M423.288,393.768c-3.528-0.367-5.248,2.184-5.101,4.821c0.141,2.527,1.912,4.787,5.109,5.12
		c1.378,0.144,1.439-0.724,1.42-1.053c-0.037-0.659-0.619-1.266-1.335-1.341c-0.938-0.098-2.591-0.27-2.714-2.467
		c-0.074-1.319,0.545-3.002,2.639-2.784c2.646,0.275,3.694,3.334,3.817,5.532c0.261,4.67-1.982,9.624-5.95,9.211
		c-2.812-0.293-4.157-3.764-4.317-6.622c-0.065-1.153,0.014-2.674,0.299-3.464c0.046-0.159,0.092-0.318,0.079-0.537
		c-0.033-0.604-0.564-1.26-1.224-1.33c-0.497-0.052-0.971,0.281-1.109,0.758c-0.468,1.426-0.609,2.831-0.522,4.369
		c0.285,5.109,3.009,8.734,6.813,9.129c5.622,0.586,8.741-5.378,8.412-11.257C429.357,397.459,426.925,394.147,423.288,393.768z
		 M405.439,392.547c-2.482-0.216-4.535,1.356-5.834,4.632c0.036-3.277-1.567-5.439-2.67-5.534c-0.662-0.057-1.183,0.443-1.149,1.048
		c0.018,0.33,0.144,0.614,0.324,0.903c0.758,0.777,1.031,1.73,1.178,3.382c0.049,1.864-0.311,4.238-0.78,6.657
		c-0.172,0.86-0.941,4.784-0.904,5.443c0.041,0.714,0.513,1.312,1.23,1.373c0.606,0.053,1.026-0.303,1.105-0.843
		c1.258-8.911,4.44-14.813,7.42-14.554c1.433,0.125,2.102,2.26,2.265,5.172c0.2,3.57-0.339,7.679-0.673,9.564
		c-0.049,0.105-0.046,0.16-0.043,0.214c0.04,0.715,0.623,1.321,1.34,1.383c0.166,0.014,1.048,0.092,1.151-1.002
		c0.281-1.835,0.922-6.098,0.706-9.944C409.728,393.685,406.707,392.657,405.439,392.547z M385.521,390.529
		c-6.07-0.316-9.597,7.442-9.278,13.156c0.231,4.12,2.586,5.895,4.794,6.011c3.974,0.207,5.533-3.391,5.48-4.325
		c-0.037-0.659-0.509-1.231-1.227-1.269c-0.441-0.023-0.867,0.229-1.009,0.659c-0.469,1.455-1.498,2.716-2.988,2.638
		c-1.435-0.074-2.453-1.551-2.567-3.585c-0.28-4.998,2.509-11.208,6.703-10.989c1.434,0.075,2.925,1.138,3.072,3.776
		c0.108,1.922-0.159,4.045-0.376,6.06c-0.165,1.963-0.41,3.485-0.345,4.638c0.061,1.098,0.479,2.664,1.693,2.727
		c0.662,0.035,1.238-0.492,1.204-1.097c-0.016-0.275-0.135-0.445-0.258-0.67c-0.064-0.168-0.132-0.391-0.15-0.72
		c-0.062-1.099,0.165-2.95,0.305-4.366c0.27-2.067,0.466-4.467,0.349-6.554C390.712,392.826,388.667,390.693,385.521,390.529z
		 M347.524,408.372c0.607,0.011,1.027-0.366,1.102-0.977c1.288-9.473,4.185-15.788,7.053-15.739
		c2.372,0.041,2.658,4.163,2.725,5.371c0.12,2.142-0.083,4.444-0.333,6.855c-0.156,1.15-0.339,2.793-0.327,3.013
		c0.037,0.659,0.568,1.281,1.284,1.294c0.993,0.017,1.023-0.43,1.421-4.156c0.688-6.409,3.223-12.293,6.311-12.239
		c1.875,0.033,2.586,2.899,2.755,5.921c0.2,3.57-0.507,7.674-0.954,9.533c-0.049,0.109-0.043,0.219-0.036,0.329
		c0.036,0.659,0.622,1.282,1.339,1.294c0.552,0.01,0.971-0.366,1.163-0.867c0.385-1.969,1.129-6.402,0.908-10.357
		c-0.332-5.933-2.554-8.222-5.038-8.32c-2.978-0.052-5.061,2.108-6.258,6.313c-0.497-4.949-2.89-6.362-4.82-6.396
		c-2.206-0.038-4.335,1.297-5.813,5.387c0.245-3.509-1.211-5.893-2.369-5.913c-0.717-0.013-1.238,0.527-1.202,1.186
		c0.019,0.33,0.144,0.606,0.325,0.884c0.874,0.838,0.981,2.761,1.015,3.366c0.163,2.911-0.455,6.633-0.96,9.423
		c-0.248,1.478-0.551,2.954-0.52,3.503C346.335,407.793,346.808,408.36,347.524,408.372z M330.761,390.402
		c-0.037-0.659-0.622-1.263-1.339-1.263c-0.991,0-1.108,0.879-1.19,1.373c-0.275,1.978-0.871,6.098-0.664,9.779
		c0.35,6.263,3.176,7.536,5.159,7.536c2.424,0,4.677-2.097,5.919-5.503c0.117,3.077,1.625,5.393,2.782,5.393
		c0.661,0,1.181-0.559,1.144-1.218c-0.015-0.274-0.086-0.549-0.322-0.824c-0.817-0.824-1.215-2.032-1.314-3.79
		c-0.108-1.923,0.192-4.45,0.521-7.417c0.281-1.868,0.495-3.956,0.52-4.505c0.073-0.659-0.408-1.373-0.959-1.373
		c-0.826,0-1.301,0.384-1.374,1.044c-0.727,8.679-3.523,15.822-7.05,15.822c-1.819,0-2.461-2.637-2.603-5.164
		c-0.191-3.406,0.369-7.196,0.784-9.614L330.761,390.402z M318.899,375.35c0.992,0,1.411,0.603,1.457,1.427
		c0.15,2.692-3.362,5.878-7.577,7.362C314.197,378.976,316.915,375.35,318.899,375.35z M310.48,408.046
		c0.716,0,1.236-0.559,1.089-1.218c-1.113-6.098,3.057-15.272,6.639-15.272c1.378,0,2.174,1.429,2.407,5.603
		c0.197,3.516-0.365,7.252-0.711,8.955c0.006,0.111-0.043,0.22-0.036,0.33c0.034,0.604,0.618,1.208,1.335,1.208
		c0.551,0,0.971-0.384,1.105-0.934c0.138-0.494,1.043-4.999,0.788-9.559c-0.132-2.363-0.51-8.13-4.863-8.13
		c-2.975,0-6.149,3.351-7.494,8.845c0.366-5.275,1.029-9.174,1.415-11.153c5.433-1.373,10.878-5.494,10.628-9.944
		c-0.126-2.252-1.583-3.681-3.953-3.681c-4.242,0-7.312,6.208-8.715,11.647c-0.6,0.11-1.369,0.165-2.085,0.165h-1.047
		c-0.612-0.11-1.133,0.439-1.096,1.099c0.071,1.263,1.224,1.208,2.216,1.208c0.497,0,1.102,0,1.484-0.054
		c-0.421,2.307-1.295,9.339-0.957,15.382c0.102,1.813,0.27,2.856,0.637,4.504C309.408,407.597,309.873,408.046,310.48,408.046z
		 M288.655,389.389c-3.517,0.123-5.232,2.935-5.084,5.571c0.141,2.527,1.907,4.558,5.094,4.446c1.375-0.047,1.436-0.93,1.417-1.26
		c-0.036-0.66-0.618-1.19-1.332-1.165c-0.934,0.032-2.583,0.09-2.706-2.108c-0.074-1.319,0.542-3.102,2.631-3.174
		c2.638-0.093,3.683,2.843,3.807,5.041c0.261,4.669-1.975,9.977-5.932,10.114c-2.803,0.098-4.144-3.213-4.305-6.07
		c-0.064-1.154,0.014-2.698,0.298-3.533c0.046-0.167,0.092-0.334,0.08-0.554c-0.034-0.603-0.563-1.191-1.222-1.168
		c-0.494,0.016-0.968,0.419-1.105,0.919c-0.466,1.502-0.606,2.938-0.52,4.476c0.286,5.109,3.001,8.381,6.794,8.248
		c5.606-0.195,8.715-6.643,8.386-12.521C294.709,392.261,292.283,389.263,288.655,389.389z M275.177,375.06
		c-0.429,0.187-0.734,0.645-0.703,1.193c0.006,0.111,0.07,0.272,0.134,0.434c0.18,0.266,0.275,0.977,0.336,2.076
		c0.126,2.253-0.485,5.094-1.412,10.157c-0.806,4.284-2.009,12.281-1.763,16.677c0.086,1.538,0.331,3.959,1.868,3.878
		c0.658-0.035,1.179-0.567,1.139-1.281c-0.012-0.22-0.077-0.382-0.196-0.54c-0.064-0.162-0.257-0.648-0.343-2.187
		c-0.245-4.394,1.013-12.394,1.944-17.402c0.589-3.227,1.322-6.846,1.178-9.429c-0.099-1.758-0.212-3.79-1.694-3.712
		C275.5,374.933,275.284,374.999,275.177,375.06z M251.066,400.234c-0.709,0.105-1.171,0.689-1.137,1.293
		c0.04,0.714,0.612,1.115,1.269,1.069c3.231-0.226,7.655-2.686,7.412-7.026c-0.123-2.198-1.551-4.138-4.836-3.909
		c-4.325,0.303-8.873,5.475-8.485,12.396c0.261,4.67,3.101,7.293,7.263,7.001c3.34-0.233,5.844-2.624,5.786-3.668
		c-0.041-0.714-0.509-1.233-1.166-1.187c-0.384,0.027-0.648,0.211-0.852,0.501c-0.866,1.218-2.307,1.981-3.731,2.081
		c-3.942,0.276-4.732-3.032-4.837-4.901c-0.329-5.878,3.362-9.666,6.099-9.858c1.424-0.099,2.233,0.616,2.294,1.714
		C256.284,398.213,253.637,399.998,251.066,400.234z M234.66,379.243c1.42-0.123,4.004,1.913,4.372,8.505
		c-3.327-0.591-5.929-2.958-6.082-5.705C232.889,380.944,233.403,379.353,234.66,379.243z M233.391,412.486
		c1.639-0.143,3.022-0.936,4.155-2.25c3.506-4.061,4.277-12.852,3.992-19.893c0.774,0.098,1.487,0.091,2.142,0.033
		c0.382-0.033,0.952-0.635,0.918-1.24c-0.036-0.659-0.437-0.955-1.099-1.007c-0.713,0.007-1.43-0.04-2.037-0.097
		c-0.01-1.159-0.585-7.512-3.579-10.01c-0.98-0.853-2.151-1.191-3.244-1.096c-2.786,0.245-4.279,2.97-4.144,5.387
		c0.221,3.956,3.963,7.05,8.618,7.856c0.45,10.007-1.206,19.648-5.795,20.051c-2.239,0.196-3.859-2.257-4.068-5.992
		c-0.227-4.065,1.672-8.372,4.512-8.621c0.819-0.072,1.551,0.25,1.849,0.665c0.24,0.366,0.689,0.547,1.071,0.514
		c0.656-0.057,1.171-0.655,1.134-1.314c-0.058-1.044-1.898-2.539-4.193-2.338c-4.533,0.397-7.063,6.195-6.777,11.304
		C227.143,409.713,230.005,412.784,233.391,412.486z M209.813,387.358c-1.24,1.314-2.955,2.909-4.668,4.558
		c-0.259,0.253-0.404,0.603-0.382,0.987c0.025,0.439,0.436,0.942,0.871,0.889c0.272-0.034,0.594-0.129,0.959-0.451
		c1.251-1.094,3.739-3.558,5.143-4.837c0.727-0.698,1.022-1.288,0.991-1.837c-0.034-0.605-0.486-0.88-1.029-0.814
		c-0.163,0.02-0.428,0.164-0.643,0.245C210.587,386.544,210.072,387.105,209.813,387.358z M207.57,396.153
		c-5.975,0.736-9.439,9.184-9.12,14.898c0.231,4.12,2.55,5.503,4.723,5.235c3.91-0.482,5.442-4.386,5.39-5.32
		c-0.037-0.658-0.502-1.154-1.208-1.068c-0.435,0.053-0.853,0.382-0.992,0.842c-0.46,1.55-1.472,3.002-2.939,3.183
		c-1.412,0.175-2.415-1.141-2.529-3.173c-0.28-4.999,2.46-11.753,6.587-12.262c1.413-0.175,2.88,0.64,3.027,3.277
		c0.108,1.923-0.153,4.112-0.365,6.185c-0.161,2.012-0.401,3.59-0.336,4.743c0.061,1.099,0.474,2.607,1.669,2.459
		c0.652-0.08,1.218-0.713,1.184-1.317c-0.016-0.275-0.134-0.426-0.254-0.633c-0.064-0.158-0.131-0.371-0.149-0.701
		c-0.061-1.099,0.16-3.007,0.298-4.462c0.264-2.135,0.454-4.592,0.337-6.68C212.681,397.569,210.666,395.772,207.57,396.153z
		 M194.541,382.637c-0.424,0.227-0.724,0.711-0.693,1.261c0.006,0.109,0.069,0.267,0.133,0.424c0.178,0.252,0.272,0.959,0.334,2.057
		c0.126,2.253-0.475,5.162-1.387,10.329c-0.792,4.376-1.973,12.516-1.727,16.91c0.086,1.538,0.33,3.95,1.846,3.735
		c0.65-0.092,1.163-0.671,1.123-1.386c-0.012-0.22-0.075-0.376-0.193-0.526c-0.063-0.157-0.253-0.629-0.339-2.167
		c-0.246-4.395,0.99-12.542,1.904-17.655c0.58-3.294,1.299-6.994,1.155-9.576c-0.098-1.758-0.212-3.791-1.673-3.585
		C194.859,382.481,194.646,382.567,194.541,382.637z M186.006,383.736c-0.424,0.226-0.723,0.711-0.693,1.26
		c0.007,0.11,0.07,0.267,0.133,0.424c0.178,0.252,0.272,0.958,0.333,2.057c0.126,2.252-0.474,5.161-1.387,10.328
		c-0.791,4.375-1.973,12.516-1.727,16.91c0.086,1.539,0.33,3.95,1.846,3.736c0.65-0.092,1.163-0.673,1.123-1.387
		c-0.012-0.22-0.076-0.376-0.193-0.526c-0.063-0.157-0.253-0.628-0.339-2.167c-0.246-4.395,0.989-12.542,1.904-17.655
		c0.58-3.293,1.3-6.994,1.155-9.576c-0.098-1.758-0.212-3.792-1.673-3.585C186.325,383.581,186.111,383.666,186.006,383.736z
		 M172.092,401.236c-5.933,0.946-9.372,9.53-9.052,15.244c0.231,4.12,2.535,5.424,4.693,5.081c3.884-0.618,5.403-4.583,5.351-5.518
		c-0.037-0.659-0.5-1.14-1.201-1.028c-0.431,0.069-0.848,0.412-0.985,0.877c-0.456,1.569-1.462,3.059-2.918,3.291
		c-1.403,0.224-2.399-1.058-2.514-3.091c-0.28-4.999,2.438-11.862,6.538-12.515c1.403-0.223,2.86,0.543,3.008,3.179
		c0.108,1.923-0.15,4.126-0.36,6.21c-0.159,2.02-0.396,3.611-0.332,4.764c0.061,1.099,0.472,2.595,1.658,2.406
		c0.647-0.102,1.209-0.756,1.175-1.36c-0.016-0.275-0.132-0.423-0.253-0.625c-0.063-0.156-0.129-0.368-0.148-0.697
		c-0.061-1.099,0.158-3.018,0.293-4.481c0.261-2.147,0.45-4.616,0.333-6.703C177.168,402.478,175.166,400.747,172.092,401.236z
		 M141.643,418.355c-2.033,0.398-3.599,2.372-3.47,4.679c0.153,2.746,3.037,4.024,6.087,3.426c4.066-0.796,6.278-3.794,6.088-7.2
		c-0.157-2.801-2.012-4.049-4.722-5.128c-2.214-0.899-2.732-1.464-2.79-2.508c-0.08-1.428,0.821-2.716,2.533-3.051
		c1.391-0.272,2.208,0.789,2.399,1.307c0.131,0.419,0.682,0.588,1.003,0.525c0.696-0.136,1.199-0.79,1.16-1.504
		c-0.052-0.934-1.415-3.055-4.625-2.427c-3.317,0.651-4.95,3.358-4.824,5.611c0.153,2.747,2.43,3.801,4.195,4.399
		c2.481,0.847,3.209,2.259,3.283,3.578c0.138,2.472-1.83,4.024-3.756,4.401c-1.926,0.378-3.551-0.637-3.625-1.956
		c-0.043-0.769,0.178-1.645,1.194-1.844c0.375-0.074,0.541,0.004,0.865-0.003c0.324-0.008,1.064-0.32,1.012-1.254
		C143.587,418.307,142.606,418.167,141.643,418.355z M129.407,410.312c-5.829,1.36-9.199,10.214-8.88,15.928
		c0.231,4.12,2.497,5.271,4.616,4.776c3.816-0.889,5.305-4.974,5.253-5.909c-0.037-0.658-0.492-1.109-1.18-0.949
		c-0.424,0.099-0.833,0.473-0.968,0.949c-0.447,1.607-1.433,3.173-2.864,3.506c-1.378,0.321-2.358-0.897-2.473-2.929
		c-0.28-4.999,2.384-12.076,6.413-13.016c1.378-0.321,2.811,0.346,2.959,2.983c0.108,1.922-0.144,4.151-0.348,6.258
		c-0.155,2.04-0.386,3.652-0.322,4.806c0.062,1.099,0.466,2.572,1.632,2.3c0.635-0.148,1.187-0.843,1.153-1.447
		c-0.015-0.275-0.131-0.415-0.249-0.61c-0.062-0.152-0.128-0.36-0.146-0.689c-0.061-1.099,0.152-3.041,0.284-4.518
		c0.255-2.175,0.437-4.666,0.321-6.753C134.397,411.208,132.428,409.608,129.407,410.312z M99.204,420.176
		c0.385,8.767-1.668,16.335-3.843,17.01c-1.036,0.321-1.291-2.339-1.333-3.108c-0.253-4.505,1.587-12.117,4.57-19.079
		C98.958,416.731,99.102,418.363,99.204,420.176z M84.213,422.533c0.529,9.45-1.895,18.864-5.262,19.908
		c-2.435,0.755-2.719-3.404-2.76-4.119c-0.341-6.097,2.719-16.38,7.106-23.665C83.689,416.939,84.04,419.456,84.213,422.533z
		 M76.787,404.715c-0.622,0.193-1.164,0.865-1.123,1.579c0.033,0.604,0.524,0.899,1.049,0.848c2.672-0.269,4.611,1.421,5.877,5.22
		c-5.591,7.435-9.053,19.965-8.678,26.667c0.268,4.78,2.472,6.509,5.114,5.69c5.335-1.655,8.099-12.525,7.518-22.909
		c-0.178-3.186-0.594-6.858-1.372-9.466c1.711-2.375,3.67-4.1,5.741-4.743c1.709-0.529,3.148-0.249,4.3,0.567
		c1.159,0.926,2.025,2.278,2.549,4.127c-3.863,7.234-6.327,16.885-6.013,22.488c0.132,2.362,0.632,3.773,1.513,4.448
		c0.598,0.327,1.341,0.432,2.17,0.175c4.662-1.445,6.561-11.768,6.072-20.504c-0.157-2.801-0.612-5.287-1.228-6.884
		c0.712-1.395,3.896-7.58,7.574-8.72c4.61-1.43,6.151,4.464,6.428,9.408c0.381,6.812-1.05,15.136-3.327,19.643
		c-0.091,0.251-0.131,0.488-0.115,0.762c0.04,0.714,0.534,1.073,1.156,0.88c0.362-0.113,0.767-0.406,0.956-0.809
		c2.509-5.081,4.07-13.893,3.661-21.199c-0.225-4.011-1.098-8.323-3.847-10.377c-1.376-1.026-3.07-1.172-4.934-0.594
		c-3.418,1.06-6.376,4.716-8.537,8.46c-0.571-1.723-2.964-5.899-8.351-4.229c-2.434,0.755-4.603,2.49-6.534,4.709
		c-1.403-3.421-3.644-5.8-7.359-5.319L76.787,404.715z"/>
</g>
</svg>
